# Blender 3.4.1
# www.blender.org
mtllib forward_arrow.mtl
o ForwardArrow
v 0.000000 0.100000 0.000000
v 0.000000 0.100000 3.000000
v 0.019509 0.098079 0.000000
v 0.019509 0.098078 3.000000
v 0.038268 0.092388 0.000000
v 0.038268 0.092388 3.000000
v 0.055557 0.083147 0.000000
v 0.055557 0.083147 3.000000
v 0.070711 0.070711 0.000000
v 0.070711 0.070711 3.000000
v 0.083147 0.055557 0.000000
v 0.083147 0.055557 3.000000
v 0.092388 0.038268 0.000000
v 0.092388 0.038268 3.000000
v 0.098079 0.019509 0.000000
v 0.098079 0.019509 3.000000
v 0.100000 0.000000 0.000000
v 0.100000 -0.000000 3.000000
v 0.098079 -0.019509 0.000000
v 0.098079 -0.019509 3.000000
v 0.092388 -0.038268 0.000000
v 0.092388 -0.038268 3.000000
v 0.083147 -0.055557 0.000000
v 0.083147 -0.055557 3.000000
v 0.070711 -0.070711 0.000000
v 0.070711 -0.070711 3.000000
v 0.055557 -0.083147 0.000000
v 0.055557 -0.083147 3.000000
v 0.038268 -0.092388 0.000000
v 0.038268 -0.092388 3.000000
v 0.019509 -0.098078 0.000000
v 0.019509 -0.098079 3.000000
v 0.000000 -0.100000 0.000000
v 0.000000 -0.100000 3.000000
v -0.019509 -0.098078 0.000000
v -0.019509 -0.098079 3.000000
v -0.038268 -0.092388 0.000000
v -0.038268 -0.092388 3.000000
v -0.055557 -0.083147 0.000000
v -0.055557 -0.083147 3.000000
v -0.070711 -0.070711 0.000000
v -0.070711 -0.070711 3.000000
v -0.083147 -0.055557 0.000000
v -0.083147 -0.055557 3.000000
v -0.092388 -0.038268 0.000000
v -0.092388 -0.038268 3.000000
v -0.098079 -0.019509 0.000000
v -0.098079 -0.019509 3.000000
v -0.100000 0.000000 0.000000
v -0.100000 -0.000000 3.000000
v -0.098079 0.019509 0.000000
v -0.098079 0.019509 3.000000
v -0.092388 0.038268 0.000000
v -0.092388 0.038268 3.000000
v -0.083147 0.055557 0.000000
v -0.083147 0.055557 3.000000
v -0.070711 0.070711 0.000000
v -0.070711 0.070711 3.000000
v -0.055557 0.083147 0.000000
v -0.055557 0.083147 3.000000
v -0.038268 0.092388 0.000000
v -0.038268 0.092388 3.000000
v -0.019509 0.098079 0.000000
v -0.019509 0.098078 3.000000
v 0.000000 0.500000 3.000000
v 0.097545 0.490393 3.000000
v 0.191342 0.461940 3.000000
v 0.277785 0.415735 3.000000
v 0.353553 0.353553 3.000000
v 0.415735 0.277785 3.000000
v 0.461940 0.191342 3.000000
v 0.490393 0.097545 3.000000
v 0.500000 0.000000 3.000000
v 0.490393 -0.097545 3.000000
v 0.461940 -0.191342 3.000000
v 0.415735 -0.277785 3.000000
v 0.353553 -0.353553 3.000000
v 0.277785 -0.415735 3.000000
v 0.191342 -0.461940 3.000000
v 0.097545 -0.490393 3.000000
v 0.000000 -0.500000 3.000000
v -0.097545 -0.490393 3.000000
v -0.191342 -0.461940 3.000000
v -0.277785 -0.415735 3.000000
v -0.353553 -0.353553 3.000000
v -0.415735 -0.277785 3.000000
v -0.461940 -0.191342 3.000000
v -0.490393 -0.097545 3.000000
v -0.500000 0.000000 3.000000
v -0.490393 0.097545 3.000000
v -0.461940 0.191342 3.000000
v -0.415735 0.277785 3.000000
v -0.353553 0.353553 3.000000
v -0.277785 0.415735 3.000000
v -0.191342 0.461940 3.000000
v -0.097545 0.490393 3.000000
v 0.000000 -0.000000 5.000000
vn 0.0980 0.9952 -0.0000
vn 0.2903 0.9569 -0.0000
vn 0.4714 0.8819 -0.0000
vn 0.6344 0.7730 -0.0000
vn 0.7730 0.6344 -0.0000
vn 0.8819 0.4714 -0.0000
vn 0.9569 0.2903 -0.0000
vn 0.9952 0.0980 -0.0000
vn 0.9952 -0.0980 -0.0000
vn 0.9569 -0.2903 -0.0000
vn 0.8819 -0.4714 -0.0000
vn 0.7730 -0.6344 -0.0000
vn 0.6344 -0.7730 -0.0000
vn 0.4714 -0.8819 -0.0000
vn 0.2903 -0.9569 -0.0000
vn 0.0980 -0.9952 -0.0000
vn -0.0980 -0.9952 -0.0000
vn -0.2903 -0.9569 -0.0000
vn -0.4714 -0.8819 -0.0000
vn -0.6344 -0.7730 -0.0000
vn -0.7730 -0.6344 -0.0000
vn -0.8819 -0.4714 -0.0000
vn -0.9569 -0.2903 -0.0000
vn -0.9952 -0.0980 -0.0000
vn -0.9952 0.0980 -0.0000
vn -0.9569 0.2903 -0.0000
vn -0.8819 0.4714 -0.0000
vn -0.7730 0.6344 -0.0000
vn -0.6344 0.7730 -0.0000
vn -0.4714 0.8819 -0.0000
vn -0.2903 0.9569 -0.0000
vn -0.0980 0.9952 -0.0000
vn 0.0951 0.9657 0.2414
vn 0.2817 0.9286 0.2414
vn 0.4575 0.8558 0.2414
vn 0.6156 0.7501 0.2414
vn 0.7501 0.6156 0.2414
vn 0.8558 0.4575 0.2414
vn 0.9286 0.2817 0.2414
vn 0.9657 0.0951 0.2414
vn 0.9657 -0.0951 0.2414
vn 0.9286 -0.2817 0.2414
vn 0.8558 -0.4575 0.2414
vn 0.7501 -0.6156 0.2414
vn 0.6156 -0.7501 0.2414
vn 0.4575 -0.8558 0.2414
vn 0.2817 -0.9286 0.2414
vn 0.0951 -0.9657 0.2414
vn -0.0951 -0.9657 0.2414
vn -0.2817 -0.9286 0.2414
vn -0.4575 -0.8558 0.2414
vn -0.6156 -0.7501 0.2414
vn -0.7501 -0.6156 0.2414
vn -0.8558 -0.4575 0.2414
vn -0.9286 -0.2817 0.2414
vn -0.9657 -0.0951 0.2414
vn -0.9657 0.0951 0.2414
vn -0.9286 0.2817 0.2414
vn -0.8558 0.4575 0.2414
vn -0.7501 0.6156 0.2414
vn -0.6156 0.7501 0.2414
vn -0.4575 0.8558 0.2414
vn -0.0000 -0.0000 -1.0000
vn -0.2817 0.9286 0.2414
vn -0.0951 0.9657 0.2414
vt 0.377801 0.252737
vt 0.125120 0.252737
vt 0.377801 0.379077
vt 0.125120 0.379077
vt 0.369905 0.252737
vt 0.369905 0.379077
vt 0.362009 0.252737
vt 0.362009 0.379077
vt 0.354113 0.252737
vt 0.354113 0.379077
vt 0.346216 0.252737
vt 0.346216 0.379077
vt 0.338320 0.252737
vt 0.338320 0.379077
vt 0.330424 0.252737
vt 0.330424 0.379077
vt 0.322527 0.252737
vt 0.322527 0.379077
vt 0.314631 0.252737
vt 0.314631 0.379077
vt 0.306735 0.252737
vt 0.306735 0.379077
vt 0.298839 0.252737
vt 0.298839 0.379077
vt 0.290942 0.252737
vt 0.290942 0.379077
vt 0.283046 0.252737
vt 0.283046 0.379077
vt 0.275150 0.252737
vt 0.275150 0.379077
vt 0.267253 0.252737
vt 0.267253 0.379077
vt 0.259357 0.252737
vt 0.259357 0.379077
vt 0.251461 0.252737
vt 0.251461 0.379077
vt 0.243565 0.252737
vt 0.243565 0.379077
vt 0.235668 0.252737
vt 0.235668 0.379077
vt 0.227772 0.252737
vt 0.227772 0.379077
vt 0.219876 0.252737
vt 0.219876 0.379077
vt 0.211979 0.252737
vt 0.211979 0.379077
vt 0.204083 0.252737
vt 0.204083 0.379077
vt 0.196187 0.252737
vt 0.196187 0.379077
vt 0.188291 0.252737
vt 0.188291 0.379077
vt 0.180394 0.252737
vt 0.180394 0.379077
vt 0.172498 0.252737
vt 0.172498 0.379077
vt 0.164602 0.252737
vt 0.164602 0.379077
vt 0.156706 0.252737
vt 0.156706 0.379077
vt 0.148809 0.252737
vt 0.148809 0.379077
vt 0.140913 0.252737
vt 0.140913 0.379077
vt 0.133017 0.252737
vt 0.133017 0.379077
vt 0.187608 0.313661
vt 0.320235 0.313661
vt 0.200028 0.312438
vt 0.332655 0.312438
vt 0.211970 0.308815
vt 0.344597 0.308815
vt 0.222976 0.302932
vt 0.355603 0.302932
vt 0.232623 0.295015
vt 0.365250 0.295015
vt 0.240540 0.285368
vt 0.373167 0.285368
vt 0.246423 0.274362
vt 0.379050 0.274362
vt 0.250046 0.262420
vt 0.382673 0.262420
vt 0.251269 0.250000
vt 0.383896 0.250000
vt 0.250046 0.237580
vt 0.382673 0.237580
vt 0.246423 0.225638
vt 0.379050 0.225638
vt 0.240540 0.214632
vt 0.373167 0.214632
vt 0.232623 0.204985
vt 0.365250 0.204985
vt 0.222976 0.197068
vt 0.355603 0.197068
vt 0.211970 0.191185
vt 0.344597 0.191185
vt 0.200028 0.187562
vt 0.332655 0.187562
vt 0.187608 0.186339
vt 0.320235 0.186339
vt 0.175189 0.187562
vt 0.307815 0.187562
vt 0.163246 0.191185
vt 0.295873 0.191185
vt 0.152240 0.197068
vt 0.284867 0.197068
vt 0.142593 0.204985
vt 0.275220 0.204985
vt 0.134676 0.214632
vt 0.267303 0.214632
vt 0.128793 0.225638
vt 0.261420 0.225638
vt 0.125171 0.237580
vt 0.257797 0.237580
vt 0.123948 0.250000
vt 0.256574 0.250000
vt 0.125171 0.262420
vt 0.257797 0.262420
vt 0.128793 0.274362
vt 0.261420 0.274362
vt 0.134676 0.285368
vt 0.267303 0.285368
vt 0.142593 0.295015
vt 0.275220 0.295015
vt 0.152240 0.302932
vt 0.284867 0.302932
vt 0.163246 0.308815
vt 0.295873 0.308815
vt 0.175189 0.312438
vt 0.307815 0.312438
vt 0.187608 0.250000
s 0
usemtl Material.001
f 2/3/1 3/5/1 1/1/1
f 4/6/2 5/7/2 3/5/2
f 6/8/3 7/9/3 5/7/3
f 8/10/4 9/11/4 7/9/4
f 10/12/5 11/13/5 9/11/5
f 12/14/6 13/15/6 11/13/6
f 14/16/7 15/17/7 13/15/7
f 16/18/8 17/19/8 15/17/8
f 18/20/9 19/21/9 17/19/9
f 20/22/10 21/23/10 19/21/10
f 22/24/11 23/25/11 21/23/11
f 24/26/12 25/27/12 23/25/12
f 26/28/13 27/29/13 25/27/13
f 28/30/14 29/31/14 27/29/14
f 30/32/15 31/33/15 29/31/15
f 32/34/16 33/35/16 31/33/16
f 34/36/17 35/37/17 33/35/17
f 36/38/18 37/39/18 35/37/18
f 38/40/19 39/41/19 37/39/19
f 40/42/20 41/43/20 39/41/20
f 42/44/21 43/45/21 41/43/21
f 44/46/22 45/47/22 43/45/22
f 46/48/23 47/49/23 45/47/23
f 48/50/24 49/51/24 47/49/24
f 50/52/25 51/53/25 49/51/25
f 52/54/26 53/55/26 51/53/26
f 54/56/27 55/57/27 53/55/27
f 56/58/28 57/59/28 55/57/28
f 58/60/29 59/61/29 57/59/29
f 60/62/30 61/63/30 59/61/30
f 62/64/31 63/65/31 61/63/31
f 64/66/32 1/2/32 63/65/32
f 65/67/33 97/131/33 66/69/33
f 66/69/34 97/131/34 67/71/34
f 67/71/35 97/131/35 68/73/35
f 68/73/36 97/131/36 69/75/36
f 69/75/37 97/131/37 70/77/37
f 70/77/38 97/131/38 71/79/38
f 71/79/39 97/131/39 72/81/39
f 72/81/40 97/131/40 73/83/40
f 73/83/41 97/131/41 74/85/41
f 74/85/42 97/131/42 75/87/42
f 75/87/43 97/131/43 76/89/43
f 76/89/44 97/131/44 77/91/44
f 77/91/45 97/131/45 78/93/45
f 78/93/46 97/131/46 79/95/46
f 79/95/47 97/131/47 80/97/47
f 80/97/48 97/131/48 81/99/48
f 81/99/49 97/131/49 82/101/49
f 82/101/50 97/131/50 83/103/50
f 83/103/51 97/131/51 84/105/51
f 84/105/52 97/131/52 85/107/52
f 85/107/53 97/131/53 86/109/53
f 86/109/54 97/131/54 87/111/54
f 87/111/55 97/131/55 88/113/55
f 88/113/56 97/131/56 89/115/56
f 89/115/57 97/131/57 90/117/57
f 90/117/58 97/131/58 91/119/58
f 91/119/59 97/131/59 92/121/59
f 92/121/60 97/131/60 93/123/60
f 93/123/61 97/131/61 94/125/61
f 94/125/62 97/131/62 95/127/62
f 80/98/63 88/114/63 96/130/63
f 95/127/64 97/131/64 96/129/64
f 96/129/65 97/131/65 65/67/65
f 2/3/1 4/6/1 3/5/1
f 4/6/2 6/8/2 5/7/2
f 6/8/3 8/10/3 7/9/3
f 8/10/4 10/12/4 9/11/4
f 10/12/5 12/14/5 11/13/5
f 12/14/6 14/16/6 13/15/6
f 14/16/7 16/18/7 15/17/7
f 16/18/8 18/20/8 17/19/8
f 18/20/9 20/22/9 19/21/9
f 20/22/10 22/24/10 21/23/10
f 22/24/11 24/26/11 23/25/11
f 24/26/12 26/28/12 25/27/12
f 26/28/13 28/30/13 27/29/13
f 28/30/14 30/32/14 29/31/14
f 30/32/15 32/34/15 31/33/15
f 32/34/16 34/36/16 33/35/16
f 34/36/17 36/38/17 35/37/17
f 36/38/18 38/40/18 37/39/18
f 38/40/19 40/42/19 39/41/19
f 40/42/20 42/44/20 41/43/20
f 42/44/21 44/46/21 43/45/21
f 44/46/22 46/48/22 45/47/22
f 46/48/23 48/50/23 47/49/23
f 48/50/24 50/52/24 49/51/24
f 50/52/25 52/54/25 51/53/25
f 52/54/26 54/56/26 53/55/26
f 54/56/27 56/58/27 55/57/27
f 56/58/28 58/60/28 57/59/28
f 58/60/29 60/62/29 59/61/29
f 60/62/30 62/64/30 61/63/30
f 62/64/31 64/66/31 63/65/31
f 64/66/32 2/4/32 1/2/32
f 96/130/63 65/68/63 66/70/63
f 66/70/63 67/72/63 68/74/63
f 68/74/63 69/76/63 70/78/63
f 70/78/63 71/80/63 72/82/63
f 72/82/63 73/84/63 74/86/63
f 74/86/63 75/88/63 76/90/63
f 76/90/63 77/92/63 78/94/63
f 78/94/63 79/96/63 80/98/63
f 80/98/63 81/100/63 82/102/63
f 82/102/63 83/104/63 84/106/63
f 84/106/63 85/108/63 86/110/63
f 86/110/63 87/112/63 88/114/63
f 88/114/63 89/116/63 90/118/63
f 90/118/63 91/120/63 92/122/63
f 92/122/63 93/124/63 94/126/63
f 94/126/63 95/128/63 96/130/63
f 96/130/63 66/70/63 68/74/63
f 68/74/63 70/78/63 72/82/63
f 72/82/63 74/86/63 76/90/63
f 76/90/63 78/94/63 80/98/63
f 80/98/63 82/102/63 84/106/63
f 84/106/63 86/110/63 88/114/63
f 88/114/63 90/118/63 92/122/63
f 92/122/63 94/126/63 96/130/63
f 96/130/63 68/74/63 72/82/63
f 72/82/63 76/90/63 80/98/63
f 80/98/63 84/106/63 88/114/63
f 88/114/63 92/122/63 96/130/63
f 96/130/63 72/82/63 80/98/63
