# Blender 3.4.1
# www.blender.org
o Circle.001
v 0.000000 -0.000003 5.000000
v -0.975452 -0.000003 4.903926
v -1.913417 -0.000002 4.619398
v -2.777851 -0.000002 4.157348
v -3.535534 -0.000002 3.535534
v -4.157348 -0.000001 2.777851
v -4.619398 -0.000001 1.913417
v -4.903926 -0.000000 0.975452
v -5.000000 0.000000 0.000000
v -4.903926 0.000000 -0.975452
v -4.619398 0.000001 -1.913417
v -4.157348 0.000001 -2.777851
v -3.535534 0.000002 -3.535534
v -2.777851 0.000002 -4.157348
v -1.913417 0.000002 -4.619398
v -0.975452 0.000003 -4.903926
v 0.000000 0.000003 -5.000000
v 0.975452 0.000003 -4.903926
v 1.913417 0.000002 -4.619398
v 2.777851 0.000002 -4.157348
v 3.535534 0.000002 -3.535534
v 4.157348 0.000001 -2.777851
v 4.619398 0.000001 -1.913417
v 4.903926 0.000000 -0.975452
v 5.000000 0.000000 0.000000
v 4.903926 -0.000000 0.975452
v 4.619398 -0.000001 1.913417
v 4.157348 -0.000001 2.777851
v 3.535534 -0.000002 3.535534
v 2.777851 -0.000002 4.157348
v 1.913417 -0.000002 4.619398
v 0.975452 -0.000003 4.903926
v -0.902677 -0.000002 4.538065
v 0.000000 -0.000002 4.626971
v -1.770665 -0.000002 4.274764
v -2.570607 -0.000002 3.847186
v -3.271762 -0.000002 3.271762
v -3.847186 -0.000001 2.570607
v -4.274764 -0.000001 1.770665
v -4.538065 -0.000000 0.902677
v -4.626971 0.000000 0.000000
v -4.538065 0.000000 -0.902677
v -4.274764 0.000001 -1.770665
v -3.847186 0.000001 -2.570607
v -3.271762 0.000002 -3.271762
v -2.570607 0.000002 -3.847186
v -1.770665 0.000002 -4.274764
v -0.902677 0.000002 -4.538065
v 0.000000 0.000002 -4.626971
v 0.902677 0.000002 -4.538065
v 1.770665 0.000002 -4.274764
v 2.570607 0.000002 -3.847186
v 3.271762 0.000002 -3.271762
v 3.847186 0.000001 -2.570607
v 4.274764 0.000001 -1.770665
v 4.538065 0.000000 -0.902677
v 4.626971 0.000000 0.000000
v 4.538065 -0.000000 0.902677
v 4.274764 -0.000001 1.770665
v 3.847186 -0.000001 2.570607
v 3.271762 -0.000002 3.271762
v 2.570607 -0.000002 3.847186
v 1.770665 -0.000002 4.274764
v 0.902677 -0.000002 4.538065
v 0.000000 0.000002 -5.000000
v -0.975452 0.000002 -4.903926
v -1.913417 0.000002 -4.619398
v -2.777851 0.000002 -4.157348
v -3.535534 0.000002 -3.535534
v -4.157348 0.000000 -2.777851
v -4.619398 0.000000 -1.913417
v -4.903926 0.000000 -0.975452
v -5.000000 0.000000 0.000000
v -4.903926 -0.000000 0.975452
v -4.619398 -0.000000 1.913417
v -4.157348 -0.000000 2.777851
v -3.535534 -0.000002 3.535534
v -2.777851 -0.000002 4.157348
v -1.913417 -0.000002 4.619398
v -0.975452 -0.000002 4.903926
v 0.000000 -0.000002 5.000000
v 0.975452 -0.000002 4.903926
v 1.913417 -0.000002 4.619398
v 2.777851 -0.000002 4.157348
v 3.535534 -0.000002 3.535534
v 4.157348 -0.000000 2.777851
v 4.619398 -0.000000 1.913417
v 4.903926 -0.000000 0.975452
v 5.000000 0.000000 0.000000
v 4.903926 0.000000 -0.975452
v 4.619398 0.000000 -1.913417
v 4.157348 0.000000 -2.777851
v 3.535534 0.000002 -3.535534
v 2.777851 0.000002 -4.157348
v 1.913417 0.000002 -4.619398
v 0.975452 0.000002 -4.903926
v -0.902677 0.000002 -4.538065
v 0.000000 0.000002 -4.626971
v -1.770665 0.000002 -4.274764
v -2.570607 0.000002 -3.847186
v -3.271762 0.000002 -3.271762
v -3.847186 0.000000 -2.570607
v -4.274764 0.000000 -1.770665
v -4.538065 0.000000 -0.902677
v -4.626971 0.000000 0.000000
v -4.538065 -0.000000 0.902677
v -4.274764 -0.000000 1.770665
v -3.847186 -0.000000 2.570607
v -3.271762 -0.000002 3.271762
v -2.570607 -0.000002 3.847186
v -1.770665 -0.000002 4.274764
v -0.902677 -0.000002 4.538065
v 0.000000 -0.000002 4.626971
v 0.902677 -0.000002 4.538065
v 1.770665 -0.000002 4.274764
v 2.570607 -0.000002 3.847186
v 3.271762 -0.000002 3.271762
v 3.847186 -0.000000 2.570607
v 4.274764 -0.000000 1.770665
v 4.538065 -0.000000 0.902677
v 4.626971 0.000000 0.000000
v 4.538065 0.000000 -0.902677
v 4.274764 0.000000 -1.770665
v 3.847186 0.000000 -2.570607
v 3.271762 0.000002 -3.271762
v 2.570607 0.000002 -3.847186
v 1.770665 0.000002 -4.274764
v 0.902677 0.000002 -4.538065
vn -0.0000 -1.0000 -0.0000
vn -0.0000 1.0000 -0.0000
vt 0.263765 0.841341
vt 0.239419 0.838943
vt 0.216009 0.831841
vt 0.194434 0.820309
vt 0.175524 0.804790
vt 0.160004 0.785879
vt 0.148472 0.764305
vt 0.141371 0.740894
vt 0.138973 0.716549
vt 0.141371 0.692203
vt 0.148472 0.668793
vt 0.160004 0.647218
vt 0.175524 0.628308
vt 0.194434 0.612788
vt 0.216009 0.601256
vt 0.239419 0.594155
vt 0.263765 0.591757
vt 0.288110 0.594155
vt 0.311521 0.601256
vt 0.333095 0.612788
vt 0.352006 0.628308
vt 0.367525 0.647218
vt 0.379057 0.668793
vt 0.386159 0.692203
vt 0.388556 0.716549
vt 0.386159 0.740894
vt 0.379057 0.764305
vt 0.367525 0.785879
vt 0.352006 0.804790
vt 0.333095 0.820309
vt 0.311521 0.831841
vt 0.288110 0.838943
vt 0.251592 0.777746
vt 0.263765 0.778945
vt 0.239887 0.774195
vt 0.229099 0.768429
vt 0.219644 0.760669
vt 0.211885 0.751214
vt 0.206119 0.740427
vt 0.202568 0.728722
vt 0.201369 0.716549
vt 0.202568 0.704376
vt 0.206119 0.692671
vt 0.211885 0.681884
vt 0.219644 0.672428
vt 0.229099 0.664669
vt 0.239887 0.658903
vt 0.251592 0.655352
vt 0.263765 0.654153
vt 0.275938 0.655352
vt 0.287643 0.658903
vt 0.298430 0.664669
vt 0.307885 0.672428
vt 0.315645 0.681884
vt 0.321411 0.692671
vt 0.324962 0.704376
vt 0.326161 0.716549
vt 0.324962 0.728722
vt 0.321411 0.740427
vt 0.315645 0.751214
vt 0.307885 0.760669
vt 0.298430 0.768429
vt 0.287643 0.774195
vt 0.275938 0.777746
vt 0.263765 0.841341
vt 0.239419 0.838943
vt 0.216009 0.831841
vt 0.194434 0.820309
vt 0.175524 0.804790
vt 0.160004 0.785879
vt 0.148472 0.764305
vt 0.141371 0.740894
vt 0.138973 0.716549
vt 0.141371 0.692203
vt 0.148472 0.668793
vt 0.160004 0.647218
vt 0.175524 0.628308
vt 0.194434 0.612788
vt 0.216009 0.601256
vt 0.239419 0.594155
vt 0.263765 0.591757
vt 0.288110 0.594155
vt 0.311521 0.601256
vt 0.333095 0.612788
vt 0.352006 0.628308
vt 0.367525 0.647218
vt 0.379057 0.668793
vt 0.386159 0.692203
vt 0.388556 0.716549
vt 0.386159 0.740894
vt 0.379057 0.764305
vt 0.367525 0.785879
vt 0.352006 0.804790
vt 0.333095 0.820309
vt 0.311521 0.831841
vt 0.288110 0.838943
vt 0.251592 0.777746
vt 0.263765 0.778945
vt 0.239887 0.774195
vt 0.229099 0.768429
vt 0.219644 0.760669
vt 0.211885 0.751214
vt 0.206119 0.740427
vt 0.202568 0.728722
vt 0.201369 0.716549
vt 0.202568 0.704376
vt 0.206119 0.692671
vt 0.211885 0.681884
vt 0.219644 0.672428
vt 0.229099 0.664669
vt 0.239887 0.658903
vt 0.251592 0.655352
vt 0.263765 0.654153
vt 0.275938 0.655352
vt 0.287643 0.658903
vt 0.298430 0.664669
vt 0.307885 0.672428
vt 0.315645 0.681884
vt 0.321411 0.692671
vt 0.324962 0.704376
vt 0.326161 0.716549
vt 0.324962 0.728722
vt 0.321411 0.740427
vt 0.315645 0.751214
vt 0.307885 0.760669
vt 0.298430 0.768429
vt 0.287643 0.774195
vt 0.275938 0.777746
s 0
f 34/34/1 2/2/1 33/33/1
f 2/2/1 35/35/1 33/33/1
f 35/35/1 4/4/1 36/36/1
f 4/4/1 37/37/1 36/36/1
f 37/37/1 6/6/1 38/38/1
f 38/38/1 7/7/1 39/39/1
f 39/39/1 8/8/1 40/40/1
f 8/8/1 41/41/1 40/40/1
f 9/9/1 42/42/1 41/41/1
f 10/10/1 43/43/1 42/42/1
f 43/43/1 12/12/1 44/44/1
f 12/12/1 45/45/1 44/44/1
f 45/45/1 14/14/1 46/46/1
f 46/46/1 15/15/1 47/47/1
f 47/47/1 16/16/1 48/48/1
f 16/16/1 49/49/1 48/48/1
f 17/17/1 50/50/1 49/49/1
f 18/18/1 51/51/1 50/50/1
f 51/51/1 20/20/1 52/52/1
f 20/20/1 53/53/1 52/52/1
f 53/53/1 22/22/1 54/54/1
f 54/54/1 23/23/1 55/55/1
f 23/23/1 56/56/1 55/55/1
f 24/24/1 57/57/1 56/56/1
f 57/57/1 26/26/1 58/58/1
f 26/26/1 59/59/1 58/58/1
f 59/59/1 28/28/1 60/60/1
f 28/28/1 61/61/1 60/60/1
f 61/61/1 30/30/1 62/62/1
f 62/62/1 31/31/1 63/63/1
f 31/31/1 64/64/1 63/63/1
f 32/32/1 34/34/1 64/64/1
f 34/34/1 1/1/1 2/2/1
f 2/2/1 3/3/1 35/35/1
f 35/35/1 3/3/1 4/4/1
f 4/4/1 5/5/1 37/37/1
f 37/37/1 5/5/1 6/6/1
f 38/38/1 6/6/1 7/7/1
f 39/39/1 7/7/1 8/8/1
f 8/8/1 9/9/1 41/41/1
f 9/9/1 10/10/1 42/42/1
f 10/10/1 11/11/1 43/43/1
f 43/43/1 11/11/1 12/12/1
f 12/12/1 13/13/1 45/45/1
f 45/45/1 13/13/1 14/14/1
f 46/46/1 14/14/1 15/15/1
f 47/47/1 15/15/1 16/16/1
f 16/16/1 17/17/1 49/49/1
f 17/17/1 18/18/1 50/50/1
f 18/18/1 19/19/1 51/51/1
f 51/51/1 19/19/1 20/20/1
f 20/20/1 21/21/1 53/53/1
f 53/53/1 21/21/1 22/22/1
f 54/54/1 22/22/1 23/23/1
f 23/23/1 24/24/1 56/56/1
f 24/24/1 25/25/1 57/57/1
f 57/57/1 25/25/1 26/26/1
f 26/26/1 27/27/1 59/59/1
f 59/59/1 27/27/1 28/28/1
f 28/28/1 29/29/1 61/61/1
f 61/61/1 29/29/1 30/30/1
f 62/62/1 30/30/1 31/31/1
f 31/31/1 32/32/1 64/64/1
f 32/32/1 1/1/1 34/34/1
f 98/98/2 66/66/2 97/97/2
f 66/66/2 99/99/2 97/97/2
f 99/99/2 68/68/2 100/100/2
f 68/68/2 101/101/2 100/100/2
f 101/101/2 70/70/2 102/102/2
f 102/102/2 71/71/2 103/103/2
f 103/103/2 72/72/2 104/104/2
f 72/72/2 105/105/2 104/104/2
f 73/73/2 106/106/2 105/105/2
f 74/74/2 107/107/2 106/106/2
f 107/107/2 76/76/2 108/108/2
f 76/76/2 109/109/2 108/108/2
f 109/109/2 78/78/2 110/110/2
f 110/110/2 79/79/2 111/111/2
f 111/111/2 80/80/2 112/112/2
f 80/80/2 113/113/2 112/112/2
f 81/81/2 114/114/2 113/113/2
f 82/82/2 115/115/2 114/114/2
f 115/115/2 84/84/2 116/116/2
f 84/84/2 117/117/2 116/116/2
f 117/117/2 86/86/2 118/118/2
f 118/118/2 87/87/2 119/119/2
f 87/87/2 120/120/2 119/119/2
f 88/88/2 121/121/2 120/120/2
f 121/121/2 90/90/2 122/122/2
f 90/90/2 123/123/2 122/122/2
f 123/123/2 92/92/2 124/124/2
f 92/92/2 125/125/2 124/124/2
f 125/125/2 94/94/2 126/126/2
f 126/126/2 95/95/2 127/127/2
f 95/95/2 128/128/2 127/127/2
f 96/96/2 98/98/2 128/128/2
f 98/98/2 65/65/2 66/66/2
f 66/66/2 67/67/2 99/99/2
f 99/99/2 67/67/2 68/68/2
f 68/68/2 69/69/2 101/101/2
f 101/101/2 69/69/2 70/70/2
f 102/102/2 70/70/2 71/71/2
f 103/103/2 71/71/2 72/72/2
f 72/72/2 73/73/2 105/105/2
f 73/73/2 74/74/2 106/106/2
f 74/74/2 75/75/2 107/107/2
f 107/107/2 75/75/2 76/76/2
f 76/76/2 77/77/2 109/109/2
f 109/109/2 77/77/2 78/78/2
f 110/110/2 78/78/2 79/79/2
f 111/111/2 79/79/2 80/80/2
f 80/80/2 81/81/2 113/113/2
f 81/81/2 82/82/2 114/114/2
f 82/82/2 83/83/2 115/115/2
f 115/115/2 83/83/2 84/84/2
f 84/84/2 85/85/2 117/117/2
f 117/117/2 85/85/2 86/86/2
f 118/118/2 86/86/2 87/87/2
f 87/87/2 88/88/2 120/120/2
f 88/88/2 89/89/2 121/121/2
f 121/121/2 89/89/2 90/90/2
f 90/90/2 91/91/2 123/123/2
f 123/123/2 91/91/2 92/92/2
f 92/92/2 93/93/2 125/125/2
f 125/125/2 93/93/2 94/94/2
f 126/126/2 94/94/2 95/95/2
f 95/95/2 96/96/2 128/128/2
f 96/96/2 65/65/2 98/98/2
